# xmcd CD Database Entry
#
# Track frame offsets:
# 150
# 15112
# 28547
# 37452
# 51937
# 65834
# 73769
# 84208
# 96112
# 105361
# 119131
# 128550
# 139747
# 152697
# 162374
# 174206
# 176910
# 195825
# 204962
# 215521
# 230555
# 241034
# 252826
# 278508
# 291832
# 294136
# 305003
#
# Disc length: 4299 seconds
#
# Revision: 1
# Processed by: cddbd v1.4PL0 Copyright (c) Steve Scherf et al.
# Submitted via: tcd 2.0b
#
DISCID=7710c91b
DTITLE=Tuntematon - Tuntematon
DYEAR=1900
DGENRE=
TTITLE0=Ura 1
TTITLE1=Ura 2
TTITLE2=Ura 3
TTITLE3=Ura 4
TTITLE4=Ura 5
TTITLE5=Ura 6
TTITLE6=Ura 7
TTITLE7=Ura 8
TTITLE8=Ura 9
TTITLE9=Ura 10
TTITLE10=Ura 11
TTITLE11=Ura 12
TTITLE12=Ura 13
TTITLE13=Ura 14
TTITLE14=Ura 15
TTITLE15=Ura 16
TTITLE16=Ura 17
TTITLE17=Ura 18
TTITLE18=Ura 19
TTITLE19=Ura 20
TTITLE20=Ura 21
TTITLE21=Ura 22
TTITLE22=Ura 23
TTITLE23=Ura 24
TTITLE24=Ura 25
TTITLE25=Ura 26
TTITLE26=Ura 27
EXTD=
EXTT0=
EXTT1=
EXTT2=
EXTT3=
EXTT4=
EXTT5=
EXTT6=
EXTT7=
EXTT8=
EXTT9=
EXTT10=
EXTT11=
EXTT12=
EXTT13=
EXTT14=
EXTT15=
EXTT16=
EXTT17=
EXTT18=
EXTT19=
EXTT20=
EXTT21=
EXTT22=
EXTT23=
EXTT24=
EXTT25=
EXTT26=
PLAYORDER=
